<svg width="20" height="21" viewBox="0 0 20 21" fill="none" xmlns="http://www.w3.org/2000/svg">
<path d="M7.76627 11.5537H10.3413V17.4831C10.3413 18.3565 11.4413 18.7678 12.025 18.1094L18.3338 11.0275C18.4567 10.89 18.5369 10.7203 18.5645 10.5389C18.5921 10.3574 18.566 10.172 18.4894 10.0049C18.4127 9.83775 18.2888 9.6961 18.1326 9.59699C17.9763 9.49788 17.7944 9.44554 17.6088 9.44628H15.0338V3.51687C15.0338 2.64352 13.9338 2.23216 13.35 2.89058L7.04127 9.97252C6.50002 10.5902 6.94127 11.5537 7.76627 11.5537Z" fill="white"/>
<path opacity="0.4" d="M7.08375 4.52982H1.25C1.08464 4.52853 0.926431 4.46304 0.809503 4.34749C0.692575 4.23193 0.626307 4.07558 0.625 3.91217C0.625 3.5737 0.90875 3.29453 1.25 3.29453H7.08375C7.425 3.29453 7.70875 3.5737 7.70875 3.91217C7.70875 4.24941 7.425 4.52982 7.08375 4.52982ZM6.25 17.7055H1.25C1.08464 17.7042 0.926431 17.6387 0.809503 17.5231C0.692575 17.4076 0.626307 17.2512 0.625 17.0878C0.625 16.7506 0.90875 16.4702 1.25 16.4702H6.25C6.59125 16.4702 6.875 16.7506 6.875 17.0878C6.875 17.4263 6.59125 17.7055 6.25 17.7055ZM3.75 11.1176H1.25C1.08464 11.1164 0.926431 11.0509 0.809503 10.9353C0.692575 10.8198 0.626307 10.6634 0.625 10.5C0.625 10.1628 0.90875 9.88235 1.25 9.88235H3.75C4.09125 9.88235 4.375 10.1628 4.375 10.5C4.375 10.8372 4.09125 11.1176 3.75 11.1176Z" fill="white"/>
</svg>
